<svg id="Layer_1" data-name="Layer 1" xmlns="http://www.w3.org/2000/svg" viewBox="0 0 240.63 110.96"><title>p+g no background</title><path d="M172.53,67.07c2,1.12,2.65,4,1.61,6.24-2.46,5.4-5,10.79-7.47,16.18-2.37,5.15-4.72,10.31-7.13,15.43-.5,1-1.2,2-2.1,3.47,2.12-.63,3.79-1,5.4-1.62a41.11,41.11,0,0,0,16.7-10.66c3.57-3.89,6-8.4,4.93-14.12a23.33,23.33,0,0,1,0-6c.18-2.55.78-5.08.79-7.62a61.69,61.69,0,0,0-.79-7.13c-.05-.49.07-1,0-1.49,0-.89-.14-1.78-.22-2.67h-.75a5.85,5.85,0,0,0-.29,1.72c.13.93.75,2-.57,2.37-.46.11-1.18-.8-2.19-1.54a20.5,20.5,0,0,1-3.74,1.77,2.55,2.55,0,0,1-2.27-.87,2.06,2.06,0,0,0-2.65-1.14,5.15,5.15,0,0,1-4.45-.43,21.36,21.36,0,0,0-6.51-1.73c-3.79-.64-7.6-1.23-11.43-1.55-1.79-.15-3.63.41-5.46.56-.33,0-.69-.38-1-.59.23-.29.43-.8.7-.85a32,32,0,0,1,5.3-.74,51.36,51.36,0,0,1,13,1.68,49.46,49.46,0,0,0,6.92.7,14.57,14.57,0,0,1,2.08.35c.8.19,1.57.52,2.37.65,2,.33,4.08.56,6.12.87,1.19.18,1.57-.48,1.73-1.49a15,15,0,0,1,.57-2.76c.48-1.35-.08-1.79-1.31-1.73s-2.59.26-3.89.29c-1,0-2.31.08-2.29-1.28,0-1.07,1-1.6,2.2-1.48s2.54,0,4.34,0a16.35,16.35,0,0,1-1.64-2.79c-.24-.76-.44-1.9,0-2.39a1.73,1.73,0,0,1,2.66-.17,2,2,0,0,0,2.51.38c2.25-1,4.53,0,5.74,2.65.73,1.58,1.69,1.74,3.13,1.36a6,6,0,0,0,3.94-2.74c1-1.62,2.47-1.71,3.23-.35a1.49,1.49,0,0,1-.08,1.36c-3.47,4.49-5.33,9.72-6.92,15.07a20,20,0,0,1-1.42,4.33,13.7,13.7,0,0,1-2.78,2.64c0,2.21.08,4.66,0,7.11a32.74,32.74,0,0,1-.66,5.94c-.82,3.45.19,6.53,1.78,9.39a32.57,32.57,0,0,0,7.54,9.57A22,22,0,0,0,209.94,106a34.71,34.71,0,0,0,10.95-.74c2.61-.54,3.11-1.28,2.23-3.61a2.31,2.31,0,0,1,0-.77,3,3,0,0,1,3.08,1.72c.55,1.28-.32,2.16-1.22,3-2,2-4.63,1.94-7.09,2.33a31.59,31.59,0,0,1-18.45-2.28c-5.32-2.4-8.17-7-11.06-11.57-.71-1.15-1.34-2.34-2.1-3.7-.76,1.3-1.4,2.45-2.08,3.58-2.52,4.16-6.42,6.86-10.26,9.63a33,33,0,0,1-11.3,5.43,64.43,64.43,0,0,1-11.19,1.88c-3.63.25-6.86-2.54-8-6.22a45.13,45.13,0,0,1-1.41-5.61,4.17,4.17,0,0,1,2.46-4.69,68,68,0,0,1,6.9-2.69c.51-.18,1.2.16,1.81.27l.16.58c-.76.38-1.5.83-2.3,1.14-1.77.68-3.72,1-5.29,2A4.15,4.15,0,0,0,144.12,99a19.67,19.67,0,0,0,1.81,6.42c1.32,2.74,4.86,4,7.88,3.32a20,20,0,0,1,2.43-.24,2.89,2.89,0,0,0-.46-.81c-1.11-.93-.68-1.59.2-2.45a12.08,12.08,0,0,0,2.3-3c1.63-3.13,3.13-6.33,4.66-9.51.37-.78.66-1.61,1-2.41,2.36-5.45,4.79-10.87,7-16.37.59-1.46.48-3.19.79-4.77A11.23,11.23,0,0,1,172.53,67.07Z"/><path d="M77.13,53.1c1-1.37,2.07-1.08,3.17-.82,2.58.6,5.17,1.16,7.75,1.74,3.49.78,7.22.89,9.65,4.24,1.63,2.25,1.75,4.68,1.46,7.26-.21,1.9.14,4-1.92,5.21-1.55.94-3,2-4.54,3-2.55,1.6-5,3.49-7.75,4.59a49.14,49.14,0,0,1-11.1,3.16c-8.7,1.29-17.5,2-26.25.87A57.52,57.52,0,0,1,36,79.09a23.16,23.16,0,0,1-6.31-3.43c-3.48-2.68-2.49-7.21.65-9.72A49.71,49.71,0,0,1,41.67,59.1a72.64,72.64,0,0,1,18-5.16,44,44,0,0,1,15.63.83c2,.43,4.09.74,6.11,1.22a2.93,2.93,0,0,1,1.28,1c.07.08-.29.79-.45.79a5.88,5.88,0,0,1-1.58-.34A10.82,10.82,0,0,0,79.52,57c-6-1.17-12-2.6-18.08-1.7a120.88,120.88,0,0,0-12.8,2.94c-5.4,1.41-10.15,4.25-14.72,7.35A21.28,21.28,0,0,0,30.61,69a2.74,2.74,0,0,0-.45,1c-.49,1.48,1.89,6,3.67,6.46s3.71,1.16,5.58,1.7c3.27.93,6.51,2.18,9.85,2.62s6.73,0,10.1,0c1.69,0,3.39.17,5,0,4.48-.44,9.07-.52,13.38-1.66A48.14,48.14,0,0,0,94,71c2.46-1.82,2.73-3.93,3-6.37s-.18-5-2.36-6.74a6.1,6.1,0,0,0-2.33-1.2c-4.54-1-9.11-2-13.67-2.95A10.3,10.3,0,0,1,77.13,53.1Z"/><path d="M11,8.72c-1.54,2.16-3.24,4.42-4.8,6.77s-2.94,4.66-4.33,7c-1.77,3,.8,8.52,3.17,9.7,1.34.67,3.08.55,4.64.76a8.2,8.2,0,0,0,1.22,0c-.17,1.52-.6,2.25-2.25,2.07C6,34.77,3.45,34.28,2.23,31.9c-1.93-3.74-3.62-7.62-.5-11.76A102.13,102.13,0,0,0,8.48,10c.65-1.13.26-2.84.4-4.28.06-.7.23-1.39.35-2.09.65.26,1.55.33,1.9.82C13.7,8,17.39,9.61,21.31,11.08A63.25,63.25,0,0,1,29.56,15c2,1.09,2.84,3.1,3.19,5.29a10.89,10.89,0,0,1,.33,2.81A3.28,3.28,0,0,1,32,24.9a1.4,1.4,0,0,1-1.37-.26,2.93,2.93,0,0,1-.28-1.94A7.62,7.62,0,0,0,29,17.26c-2.19-2.45-5.34-3-8.13-4.21C17.51,11.55,14.16,10.11,11,8.72Z"/><path d="M107.23,23.87a41.77,41.77,0,0,0,.26-4.86,18.32,18.32,0,0,0-.87-4.17,10.81,10.81,0,0,0-1.54-3.7,61.28,61.28,0,0,0-4.85-4.82c-.09-.09-.19-.15-.28-.23-.83-.71-1.82-2.12-2.47-2a7.79,7.79,0,0,0-3.33,2.22c-2.7,2.57-5.34,5.22-7.94,7.9-1.92,2-2.5,4.87-1.43,6.79a15.16,15.16,0,0,0,1.7,2c-.8.34-1.77,1.08-2.13.85A5.06,5.06,0,0,1,82,21.4a7.09,7.09,0,0,1,1.18-6.17c3.79-5.2,9-9,13.45-13.45a4.64,4.64,0,0,1,.67-.59C98,.78,98.62.4,99.27,0a19.57,19.57,0,0,0,.81,1.81,11.3,11.3,0,0,0,1.86,2.74c3.53,3.12,6.4,6.74,7.69,11.27A23.51,23.51,0,0,1,110.1,23c0,.48-1.57.9-2.41,1.35Z"/><path d="M233.36,3.71c-3.27,3.7-6.25,7.12-9.28,10.5a29.42,29.42,0,0,1-3.26,3.25,3.46,3.46,0,0,1-2.13.57c-.47,0-1.25-.51-1.31-.88a1.64,1.64,0,0,1,.82-1.38c3.06-1,4.46-3.79,6.47-5.87C227.48,7,230,3.8,232.75.82c.68-.74,1.82-1.13,2.59,0a16,16,0,0,1,1.72,3.24c1.19,3.11,2.26,6.27,3.42,9.38a1.68,1.68,0,0,1-1.18,2.37c-1.1.3-1.23-.75-1.53-1.65-1-2.91-2.06-5.77-3.17-8.62A10.73,10.73,0,0,0,233.36,3.71Z"/><path d="M198.24,61.14l-1.3-1a13.73,13.73,0,0,1,1.19-.8c.66-.38,1.34-.72,2-1.09a104,104,0,0,1,20-8c4.39-1.3,8.79-2.61,13.08-4.19a17.22,17.22,0,0,0,4.34-3c.67-.53,1.15-1,1.92-.18s.08,1.35-.52,1.82c-3.48,2.67-7.65,3.79-11.72,5A127.6,127.6,0,0,0,209.33,56c-3.14,1.45-6.2,3.08-9.31,4.6A13.72,13.72,0,0,1,198.24,61.14Z"/><path d="M139.79,22.28c.43,1,.77,1.94,1.15,2.81.54,1.22-.31,1.87-1.15,2.2-.33.13-1.46-.64-1.47-1a37.63,37.63,0,0,1,.18-8,7.4,7.4,0,0,1,4.68-5.2,4.51,4.51,0,0,1,3.13.25c4.57,1.86,8.39,4.91,12.17,8a2.09,2.09,0,0,1,.21,1.9c-.22.55-1.06,1.33-1.45,1.24A4,4,0,0,1,155.42,23c-.64-.77-1-1.86-1.71-2.48a47.78,47.78,0,0,0-5.31-3.84,10.36,10.36,0,0,0-3.29-1.22,3.06,3.06,0,0,0-3.83,2.09C140.72,19.08,140.3,20.66,139.79,22.28Z"/><path d="M196.12,80.66a12.92,12.92,0,0,1-.77,1.6,7.51,7.51,0,0,1-1,1,4.19,4.19,0,0,1-.64-1.24,1.42,1.42,0,0,1,.39-1.08c.87-.89,1.62-1.7.72-3.05-.14-.2.27-1.09.58-1.2a1.73,1.73,0,0,1,1.53.26,20.94,20.94,0,0,1,2.23,3c2.66,4.18,5.27,8.39,7.94,12.57a13.77,13.77,0,0,0,1.56,1.69c1,1,.43,2-.19,2.89a1.66,1.66,0,0,1-1.37-.32c-3.25-4.57-6.45-9.19-9.65-13.81C197,82.3,196.7,81.64,196.12,80.66Z"/><path d="M203.64,66.4a5.93,5.93,0,0,1,.37-2.16,1.78,1.78,0,0,1,1.67-.38c5.2,2.82,10.35,5.74,15.52,8.6a19.74,19.74,0,0,0,2,.79c1.44.61,2.57,1.45,2.44,3.26-2.66.8-3.93-1.55-5.78-2.42-5-2.34-9.79-4.9-14.69-7.35a7,7,0,0,0-1.55-.38Z"/><path d="M131.05,66.13c.2-2.06,0-2.33-2.07-1.91-2.41.49-4.79,1.15-7.19,1.7a1.37,1.37,0,0,1-.85-.26c0-.42.1-1.1.36-1.21a28.25,28.25,0,0,1,4.33-1.54,37.15,37.15,0,0,1,4.09-.51c1-.12,1.2-.62.81-1.5a16.19,16.19,0,0,1-.56-1.66c1.81-1.33,2.92-1,3.19,1.07.19,1.57.79,2.15,2.38,2a27.23,27.23,0,0,1,4.6.23,7.48,7.48,0,0,1,1.83.74l-.08.6h-7.67c-.05,1.16-.08,2-.13,2.77-.1,1.69-2.29,3-3.68,2-.55-.36-.78-1.18-1.16-1.8Z"/><path d="M73.61,71a38.07,38.07,0,0,0-1.75-4.16c-.76-1.35-.59-2.21.81-3,.37-.2.43-.89.78-1.2a4.6,4.6,0,0,1,1.78-1.11c.21,0,.83.81,1,1.34a39.32,39.32,0,0,1,1.33,5.83,8.39,8.39,0,0,1-.46,3.88c-.49,1.29-1.9,1.18-2.9.68-.59-.3-.86-1.25-1.28-1.91Z"/><path d="M156.47,71.91l-1.66-1.09c.62-.49,1.21-1.35,1.87-1.4a17.66,17.66,0,0,0,7.85-3,83,83,0,0,0,6.87-5.14,1.29,1.29,0,0,1,2.19.6c.48,1.51-.43,2.57-1.93,3.11a49.53,49.53,0,0,0-5,2.56c-1.93,1-3.9,1.84-5.88,2.7C159.49,70.81,158.11,71.29,156.47,71.91Z"/><path d="M51.8,65.46c.3,2.13.64,4.25.86,6.39a3.58,3.58,0,0,1-.24,2.38,3.92,3.92,0,0,1-2.23.84,11,11,0,0,1-1.44-3.78,35.27,35.27,0,0,1,.16-5.43c0-.53-.11-1.24.17-1.54.48-.5,1.43-1.17,1.82-1,.61.28.92,1.21,1.36,1.87Z"/><path d="M169.61,53.41c-.75-.73-1.58-1.15-1.64-1.66a1.75,1.75,0,0,1,2-1.93c.52,0,1.23,1.16,1.32,1.86C171.35,52.11,170.38,52.66,169.61,53.41Z"/><path d="M203.59,66.36c.42.53.72,1.29,1.27,1.56,1,.49,1.12,1,.61,2-1-.47-2.07-.86-3-1.4a1.71,1.71,0,0,1-.55-1.07,13.23,13.23,0,0,1,1.73-1.08Z"/><path d="M178,66.46a8.07,8.07,0,0,1-2.54.27c-.31-.06-.55-1.22-.5-1.86,0-.3.92-.88,1.17-.77a11.77,11.77,0,0,1,2.06,1.44Z"/><path d="M208.75,50l1.56,1.82c-.51.25-1.12.81-1.51.69-.6-.18-1-.84-1.55-1.3Z"/></svg>